<svg width="300" height="58" viewBox="0 0 300 58" fill="none" xmlns="http://www.w3.org/2000/svg">
<g clip-path="url(#clip0_709_51074)">
<path d="M39.9044 21.9239V36.0766L27.7527 43.1544V52.0002L47.5053 40.501V17.4995L39.9044 21.9239Z" fill="#00AC69"/>
<path d="M27.7526 14.8487L39.9043 21.9236L47.5052 17.4993L27.7526 6L8 17.4993L15.598 21.9236L27.7526 14.8487Z" fill="#1CE783"/>
<path d="M20.1546 33.426V47.5788L27.7526 52.0002V29.0017L8 17.4995V26.3482L20.1546 33.426Z" fill="white"/>
<path d="M74.6179 17.4673C70.3656 17.4673 68.3513 20.1757 68.3513 20.1757H68.1275L67.6827 17.9187H62.5322V40.9404H68.1275V27.6297C68.1275 24.6956 70.136 22.6642 73.0513 22.6642C75.9665 22.6642 77.9751 24.6898 77.9751 27.6297V40.9404H83.5703V27.1725C83.5703 21.3042 79.7656 17.4673 74.6179 17.4673Z" fill="white"/>
<path d="M134.96 33.041H134.639L130.834 17.9189H125.142L121.337 33.041H121.018L117.211 17.9189H111.392L117.211 40.9406H124.025L127.827 26.0443H128.149L131.953 40.9406H138.765L144.584 17.9189H138.765L134.96 33.041Z" fill="white"/>
<path d="M161.717 19.9503H161.493L161.046 17.9248H156.346V40.9436H161.941V27.6329C161.941 24.6987 163.284 23.3445 166.193 23.3445H169.063V17.9219H165.734C164.955 17.9236 164.186 18.1076 163.489 18.4596C162.792 18.8116 162.185 19.3219 161.717 19.9503V19.9503Z" fill="white"/>
<path d="M181.444 17.4673C174.732 17.4673 169.809 22.4328 169.809 29.4295C169.809 36.4263 174.454 41.3918 181.444 41.3918C187.105 41.3918 190.514 38.0323 191.934 35.5611L186.798 33.715C186.29 34.6525 184.241 36.4553 181.444 36.4553C178.181 36.4553 175.851 34.395 175.404 31.2467H192.41C192.568 30.5051 192.643 29.7481 192.634 28.9897C192.634 22.4328 187.71 17.4673 181.444 17.4673ZM175.404 27.3982C176.075 24.4641 178.09 22.207 181.444 22.207C184.58 22.207 186.591 24.4641 187.039 27.3982H175.404Z" fill="white"/>
<path d="M98.7865 17.4673C92.0722 17.4673 87.1484 22.4328 87.1484 29.4295C87.1484 36.4263 91.7853 41.3918 98.7865 41.3918C104.448 41.3918 107.854 38.0323 109.274 35.5611L104.138 33.715C103.63 34.6525 101.584 36.4553 98.7865 36.4553C95.5241 36.4553 93.1913 34.395 92.7437 31.2467H109.753C109.91 30.5051 109.986 29.7481 109.977 28.9897C109.977 22.4328 105.053 17.4673 98.7865 17.4673ZM92.7437 27.3982C93.4151 24.4641 95.4294 22.207 98.7865 22.207C101.92 22.207 103.934 24.4641 104.382 27.3982H92.7437Z" fill="white"/>
<path d="M212.195 8.83008H206.6V14.4727H212.195V8.83008Z" fill="white"/>
<path d="M227.635 36.2006C224.278 36.2006 221.592 33.4922 221.592 29.4295C221.592 25.3669 224.278 22.6585 227.635 22.6585C230.992 22.6585 232.335 24.9155 232.782 26.2697L237.85 24.4525C236.621 21.2377 233.609 17.4673 227.635 17.4673C220.92 17.4673 215.997 22.4328 215.997 29.4295C215.997 36.4263 220.92 41.3918 227.635 41.3918C233.66 41.3918 236.673 37.5606 237.878 34.1925L232.782 32.3637C232.335 33.9436 230.992 36.2006 227.635 36.2006Z" fill="white"/>
<path d="M193.254 13.8447H196.43V40.9407H202.026V8.83008H193.254V13.8447Z" fill="white"/>
<path d="M212.195 17.9189H206.6V40.9406H212.195V17.9189Z" fill="white"/>
<path d="M240.874 36.5248C240.446 36.5185 240.026 36.6407 239.667 36.8759C239.308 37.1112 239.026 37.4488 238.858 37.8458C238.69 38.2428 238.643 38.6813 238.722 39.1054C238.802 39.5296 239.005 39.9203 239.305 40.2278C239.606 40.5354 239.99 40.7458 240.41 40.8324C240.829 40.9189 241.264 40.8777 241.661 40.714C242.057 40.5503 242.396 40.2714 242.634 39.9129C242.873 39.5544 243 39.1325 243 38.7008C243.009 38.4152 242.961 38.1306 242.858 37.8644C242.755 37.5982 242.599 37.356 242.4 37.1524C242.201 36.9489 241.963 36.7883 241.701 36.6803C241.439 36.5724 241.157 36.5195 240.874 36.5248ZM240.874 40.544C240.511 40.5503 240.155 40.4476 239.85 40.249C239.545 40.0503 239.306 39.7647 239.163 39.4285C239.02 39.0923 238.979 38.7207 239.046 38.3611C239.113 38.0015 239.284 37.6701 239.539 37.4091C239.793 37.1481 240.119 36.9694 240.474 36.8956C240.829 36.8219 241.198 36.8565 241.534 36.995C241.87 37.1335 242.157 37.3697 242.36 37.6735C242.562 37.9773 242.67 38.3349 242.67 38.7008C242.678 38.9418 242.638 39.1821 242.551 39.4067C242.464 39.6314 242.332 39.8358 242.164 40.0073C241.996 40.1788 241.794 40.3138 241.573 40.4041C241.351 40.4944 241.113 40.5381 240.874 40.5324V40.544Z" fill="white"/>
<path d="M241.801 38.2985C241.8 38.1941 241.778 38.091 241.737 37.9954C241.695 37.8998 241.635 37.8139 241.559 37.7428C241.483 37.6718 241.394 37.6172 241.296 37.5824C241.198 37.5475 241.095 37.5332 240.992 37.5404H240.033V39.809H240.363V39.0219H240.664L241.442 39.809H241.852L241.075 39.0219C241.266 39.0219 241.449 38.946 241.585 38.8105C241.721 38.6751 241.798 38.4911 241.801 38.2985V38.2985ZM240.366 38.6891V37.8731H240.992C241.052 37.8658 241.112 37.8713 241.17 37.8893C241.228 37.9072 241.281 37.9372 241.327 37.9774C241.372 38.0175 241.409 38.0668 241.434 38.1221C241.459 38.1775 241.473 38.2376 241.474 38.2985C241.474 38.5387 241.322 38.6891 240.992 38.6891H240.366Z" fill="white"/>
</g>
<defs>
<clipPath id="clip0_709_51074">
<rect width="235" height="46" fill="white" transform="translate(8 6)"/>
</clipPath>
</defs>
</svg>
