<svg width="593" height="62" viewBox="0 0 593 62" fill="none" xmlns="http://www.w3.org/2000/svg">
<g opacity="0.2">
<path opacity="0.2" d="M32.4072 61.9145C15.3632 61.9145 4.00049 50.3347 4.00049 33.0455C4.00049 15.7562 15.3632 4.01562 32.4072 4.01562C49.4512 4.01562 60.8139 15.5954 60.8139 33.0455C60.8139 50.4955 49.4512 61.9145 32.4072 61.9145V61.9145ZM32.4072 20.2595C25.8456 20.2595 21.4446 25.406 21.4446 33.0455C21.4446 40.6849 25.8456 45.8314 32.4072 45.8314C38.9687 45.8314 43.3698 40.6849 43.3698 33.0455C43.3698 25.406 38.9687 20.2595 32.4072 20.2595Z" fill="black"/>
<path opacity="0.2" d="M92.6615 5.30225C103.144 5.30225 110.106 11.5746 110.106 20.9832C110.106 26.7731 107.305 31.0351 102.984 32.3217C108.025 33.6083 111.306 38.4332 111.306 45.1077C111.306 54.5163 104.344 60.7886 93.9418 60.7886H68.5758C67.9357 60.7886 67.4556 60.2257 67.4556 59.6628V6.50847C67.4556 5.94557 67.9357 5.30225 68.5758 5.30225H92.6615ZM88.9806 27.0947C91.3812 27.0947 92.9816 25.6473 92.9816 23.3956C92.9816 21.144 91.3812 19.6965 88.9806 19.6965H83.9395V27.0947H88.9806ZM90.421 46.3943C92.7415 46.3943 94.3419 44.8665 94.3419 42.5344C94.3419 40.2024 92.7415 38.6745 90.421 38.6745H83.9395V46.3943H90.421V46.3943Z" fill="black"/>
<path opacity="0.2" d="M121.868 43.9016C122.108 43.0975 122.669 42.8562 123.309 43.2583C126.99 45.3491 131.391 46.877 134.431 47.1182C136.992 47.1182 138.672 45.912 138.672 44.0625C138.672 39.318 116.187 39.5592 116.187 22.0287C116.187 11.2531 124.269 4.09619 136.432 4.09619C142.113 4.09619 149.315 6.42823 154.356 9.88608C154.996 10.2882 155.236 10.9315 154.996 11.3335L149.955 22.6721C149.715 23.4762 149.155 23.7175 148.515 23.3154C144.594 21.0638 140.033 19.3751 137.232 19.1338C134.751 19.1338 133.151 20.2596 133.151 22.0287C133.151 26.7732 155.796 26.4516 155.796 44.1429C155.796 54.8381 147.554 61.995 135.232 61.995C128.51 61.995 121.468 59.9042 117.467 56.6876C116.827 56.2051 116.587 55.6422 116.827 55.2402L121.868 43.9016V43.9016Z" fill="black"/>
<path opacity="0.2" d="M200.207 46.3139C200.847 46.3139 201.407 46.7964 201.407 47.3593V59.6628C201.407 60.2257 200.847 60.7886 200.207 60.7886H162.998C162.438 60.7886 161.878 60.1453 161.718 59.5824V6.42806C161.718 5.70432 162.118 5.30225 162.838 5.30225H199.247C199.967 5.30225 200.527 5.86515 200.527 6.42806V18.5707C200.527 19.2945 199.967 19.777 199.247 19.777H178.362V26.1297H195.326C196.046 26.1297 196.446 26.6926 196.366 27.1751L195.246 38.4332C195.166 38.9157 194.606 39.4786 193.885 39.4786H178.362V46.3139H200.207V46.3139Z" fill="black"/>
<path opacity="0.2" d="M253.179 59.502C253.579 60.2257 253.019 60.7886 252.299 60.7886H235.175C234.375 60.7886 233.655 60.2257 233.335 59.502L225.013 41.9715H224.052V59.6628C224.052 60.2257 223.492 60.7886 222.772 60.7886H208.689C208.049 60.7886 207.489 60.2257 207.489 59.6628V6.50847C207.489 5.86515 208.049 5.30225 208.689 5.30225H229.814C242.137 5.30225 250.299 12.5396 250.299 23.476C250.299 29.8288 246.458 36.262 240.456 38.8353L253.179 59.502V59.502ZM228.774 28.3009C231.494 28.3009 233.335 26.6122 233.335 24.039C233.335 21.4657 231.494 19.777 228.774 19.777H224.052V28.3009H228.774V28.3009Z" fill="black"/>
<path opacity="0.2" d="M308.953 5.30225C309.593 5.30225 309.993 5.86515 309.753 6.42806L291.428 59.6628C291.268 60.2257 290.628 60.7886 289.988 60.7886H272.384C271.744 60.7886 271.104 60.2257 270.944 59.6628L252.619 6.42806C252.379 5.86515 252.779 5.30225 253.419 5.30225H271.264C271.984 5.30225 272.624 5.86515 272.784 6.42806L281.186 39.4786L289.588 6.42806C289.748 5.86515 290.388 5.30225 291.108 5.30225H308.953V5.30225Z" fill="black"/>
<path opacity="0.2" d="M359.284 59.7432C359.524 60.2257 359.204 60.7886 358.564 60.7886H342.72C342 60.7886 341.36 60.3866 341.04 59.7432L338.639 51.2997H323.596L321.195 59.7432C320.875 60.3866 320.235 60.7886 319.515 60.7886H303.671C303.031 60.7886 302.711 60.2257 302.951 59.7432L321.035 6.34764C321.275 5.86515 322.156 5.30225 322.956 5.30225H339.28C340.08 5.30225 340.96 5.86515 341.2 6.34764L359.284 59.7432ZM331.118 24.5214L326.797 39.8003H335.439L331.118 24.5214V24.5214Z" fill="black"/>
<path opacity="0.2" d="M387.691 5.30225C398.174 5.30225 405.135 11.5746 405.135 20.9832C405.135 26.7731 402.335 31.0351 398.014 32.3217C403.055 33.6083 406.335 38.4332 406.335 45.1077C406.335 54.5163 399.374 60.7886 388.971 60.7886H363.605C362.965 60.7886 362.485 60.2257 362.485 59.6628V6.50847C362.485 5.94557 362.965 5.30225 363.605 5.30225H387.691V5.30225ZM384.01 27.0947C386.411 27.0947 388.011 25.6473 388.011 23.3956C388.011 21.144 386.411 19.6965 384.01 19.6965H378.969V27.0947H384.01ZM385.451 46.3943C387.771 46.3943 389.371 44.8665 389.371 42.5344C389.371 40.2024 387.771 38.6745 385.451 38.6745H378.969V46.3943H385.451V46.3943Z" fill="black"/>
<path opacity="0.2" d="M427.781 5.30225C428.501 5.30225 428.981 5.86515 428.981 6.50847V59.6628C428.981 60.2257 428.501 60.7886 427.781 60.7886H413.617C413.057 60.7886 412.497 60.2257 412.497 59.6628V6.50847C412.497 5.86515 413.057 5.30225 413.617 5.30225H427.781Z" fill="black"/>
<path opacity="0.2" d="M467.79 46.3139C468.35 46.3139 468.83 46.7964 468.83 47.4397L467.71 59.6628C467.63 60.2257 467.07 60.7886 466.43 60.7886H437.543C436.903 60.7886 436.343 60.2257 436.343 59.6628V6.50847C436.343 5.86515 436.903 5.30225 437.543 5.30225H451.706C452.347 5.30225 452.907 5.86515 452.907 6.50847V46.3139H467.79V46.3139Z" fill="black"/>
<path opacity="0.2" d="M489.075 5.30225C489.795 5.30225 490.275 5.86515 490.275 6.50847V59.6628C490.275 60.2257 489.795 60.7886 489.075 60.7886H474.912C474.352 60.7886 473.792 60.2257 473.792 59.6628V6.50847C473.792 5.86515 474.352 5.30225 474.912 5.30225H489.075Z" fill="black"/>
<path opacity="0.2" d="M538.927 5.30225C539.647 5.30225 540.127 5.86515 540.047 6.42806L538.847 18.6511C538.767 19.2945 538.127 19.777 537.566 19.777H525.644V59.6628C525.644 60.2257 525.164 60.7886 524.523 60.7886H510.36C509.72 60.7886 509.16 60.2257 509.16 59.6628V19.777H495.877C495.316 19.777 494.756 19.2945 494.756 18.6511V6.50847C494.756 5.86515 495.316 5.30225 495.877 5.30225H538.927Z" fill="black"/>
<path opacity="0.2" d="M591.979 5.30225C592.7 5.30225 593.26 5.86515 592.86 6.58889L575.175 38.5941V59.6628C575.175 60.2257 574.615 60.7886 573.975 60.7886H559.892C559.252 60.7886 558.692 60.2257 558.692 59.6628V38.5941L541.007 6.58889C540.607 5.86515 541.167 5.30225 541.888 5.30225H558.532C559.332 5.30225 560.052 5.86515 560.372 6.58889L566.934 21.0636L573.495 6.58889C573.815 5.86515 574.535 5.30225 575.336 5.30225H591.979V5.30225Z" fill="black"/>
</g>
<path d="M29.4067 58.8988C12.3627 58.8988 1 47.3191 1 30.0298C1 12.7406 12.3627 1 29.4067 1C46.4507 1 57.8134 12.5798 57.8134 30.0298C57.8134 47.4799 46.4507 58.8988 29.4067 58.8988V58.8988ZM29.4067 17.2438C22.8452 17.2438 18.4441 22.3904 18.4441 30.0298C18.4441 37.6693 22.8452 42.8158 29.4067 42.8158C35.9683 42.8158 40.3693 37.6693 40.3693 30.0298C40.3693 22.3904 35.9683 17.2438 29.4067 17.2438Z" fill="url(#paint0_linear_3830_430756)" stroke="#1D1D1B" stroke-width="2"/>
<path d="M89.661 2.28662C100.144 2.28662 107.105 8.55899 107.105 17.9676C107.105 23.7574 104.304 28.0194 99.9835 29.3061C105.025 30.5927 108.305 35.4176 108.305 42.0921C108.305 51.5006 101.344 57.773 90.9413 57.773H65.5753C64.9352 57.773 64.4551 57.2101 64.4551 56.6472V3.49285C64.4551 2.92994 64.9352 2.28662 65.5753 2.28662H89.661V2.28662ZM85.9802 24.0791C88.3807 24.0791 89.9811 22.6316 89.9811 20.38C89.9811 18.1284 88.3807 16.6809 85.9802 16.6809H80.939V24.0791H85.9802ZM87.4205 43.3787C89.741 43.3787 91.3414 41.8508 91.3414 39.5188C91.3414 37.1868 89.741 35.6589 87.4205 35.6589H80.939V43.3787H87.4205V43.3787Z" fill="url(#paint1_linear_3830_430756)" stroke="#1D1D1B" stroke-width="2"/>
<path d="M118.868 40.886C119.108 40.0819 119.668 39.8406 120.308 40.2427C123.989 42.3335 128.39 43.8614 131.431 44.1026C133.991 44.1026 135.672 42.8964 135.672 41.0468C135.672 36.3024 113.187 36.5436 113.187 19.0131C113.187 8.23751 121.268 1.08057 133.431 1.08057C139.113 1.08057 146.314 3.4126 151.356 6.87045C151.996 7.27253 152.236 7.91585 151.996 8.31792L146.954 19.6564C146.714 20.4606 146.154 20.7018 145.514 20.2998C141.593 18.0481 137.032 16.3594 134.231 16.1182C131.751 16.1182 130.151 17.244 130.151 19.0131C130.151 23.7576 152.796 23.4359 152.796 41.1273C152.796 51.8225 144.554 58.9794 132.231 58.9794C125.509 58.9794 118.468 56.8886 114.467 53.672C113.827 53.1895 113.587 52.6266 113.827 52.2245L118.868 40.886V40.886Z" fill="url(#paint2_linear_3830_430756)" stroke="#1D1D1B" stroke-width="2"/>
<path d="M197.206 43.2983C197.847 43.2983 198.407 43.7808 198.407 44.3437V56.6472C198.407 57.2101 197.847 57.773 197.206 57.773H159.998C159.437 57.773 158.877 57.1297 158.717 56.5668V3.41243C158.717 2.6887 159.117 2.28662 159.838 2.28662H196.246C196.966 2.28662 197.526 2.84953 197.526 3.41243V15.5551C197.526 16.2788 196.966 16.7613 196.246 16.7613H175.361V23.1141H192.325C193.045 23.1141 193.445 23.677 193.365 24.1595L192.245 35.4176C192.165 35.9001 191.605 36.463 190.885 36.463H175.361V43.2983H197.206V43.2983Z" fill="url(#paint3_linear_3830_430756)" stroke="#1D1D1B" stroke-width="2"/>
<path d="M250.179 56.4864C250.579 57.2101 250.019 57.773 249.299 57.773H232.175C231.374 57.773 230.654 57.2101 230.334 56.4864L222.012 38.9559H221.052V56.6472C221.052 57.2101 220.492 57.773 219.772 57.773H205.688C205.048 57.773 204.488 57.2101 204.488 56.6472V3.49285C204.488 2.84953 205.048 2.28662 205.688 2.28662H226.813C239.136 2.28662 247.298 9.52398 247.298 20.4604C247.298 26.8132 243.457 33.2464 237.456 35.8197L250.179 56.4864V56.4864ZM225.773 25.2853C228.494 25.2853 230.334 23.5966 230.334 21.0233C230.334 18.45 228.494 16.7613 225.773 16.7613H221.052V25.2853H225.773V25.2853Z" fill="url(#paint4_linear_3830_430756)" stroke="#1D1D1B" stroke-width="2"/>
<path d="M305.952 2.28662C306.592 2.28662 306.992 2.84953 306.752 3.41243L288.428 56.6472C288.268 57.2101 287.628 57.773 286.988 57.773H269.383C268.743 57.773 268.103 57.2101 267.943 56.6472L249.619 3.41243C249.379 2.84953 249.779 2.28662 250.419 2.28662H268.263C268.983 2.28662 269.623 2.84953 269.784 3.41243L278.185 36.463L286.587 3.41243C286.748 2.84953 287.388 2.28662 288.108 2.28662H305.952V2.28662Z" fill="url(#paint5_linear_3830_430756)" stroke="#1D1D1B" stroke-width="2"/>
<path d="M356.284 56.7276C356.524 57.2101 356.204 57.773 355.564 57.773H339.72C339 57.773 338.36 57.3709 338.04 56.7276L335.639 48.284H320.595L318.195 56.7276C317.875 57.3709 317.235 57.773 316.514 57.773H300.671C300.031 57.773 299.71 57.2101 299.951 56.7276L318.035 3.33202C318.275 2.84953 319.155 2.28662 319.955 2.28662H336.279C337.079 2.28662 337.96 2.84953 338.2 3.33202L356.284 56.7276ZM328.117 21.5058L323.796 36.7847H332.438L328.117 21.5058V21.5058Z" fill="url(#paint6_linear_3830_430756)" stroke="#1D1D1B" stroke-width="2"/>
<path d="M384.691 2.28662C395.173 2.28662 402.135 8.55899 402.135 17.9676C402.135 23.7574 399.334 28.0194 395.013 29.3061C400.054 30.5927 403.335 35.4176 403.335 42.0921C403.335 51.5006 396.373 57.773 385.971 57.773H360.605C359.965 57.773 359.485 57.2101 359.485 56.6472V3.49285C359.485 2.92994 359.965 2.28662 360.605 2.28662H384.691V2.28662ZM381.01 24.0791C383.41 24.0791 385.011 22.6316 385.011 20.38C385.011 18.1284 383.41 16.6809 381.01 16.6809H375.969V24.0791H381.01ZM382.45 43.3787C384.771 43.3787 386.371 41.8508 386.371 39.5188C386.371 37.1868 384.771 35.6589 382.45 35.6589H375.969V43.3787H382.45V43.3787Z" fill="url(#paint7_linear_3830_430756)" stroke="#1D1D1B" stroke-width="2"/>
<path d="M424.78 2.28662C425.5 2.28662 425.98 2.84953 425.98 3.49285V56.6472C425.98 57.2101 425.5 57.773 424.78 57.773H410.617C410.057 57.773 409.497 57.2101 409.497 56.6472V3.49285C409.497 2.84953 410.057 2.28662 410.617 2.28662H424.78V2.28662Z" fill="url(#paint8_linear_3830_430756)" stroke="#1D1D1B" stroke-width="2"/>
<path d="M464.79 43.2983C465.35 43.2983 465.83 43.7808 465.83 44.4241L464.71 56.6472C464.63 57.2101 464.07 57.773 463.429 57.773H434.543C433.902 57.773 433.342 57.2101 433.342 56.6472V3.49285C433.342 2.84953 433.902 2.28662 434.543 2.28662H448.706C449.346 2.28662 449.906 2.84953 449.906 3.49285V43.2983H464.79V43.2983Z" fill="url(#paint9_linear_3830_430756)" stroke="#1D1D1B" stroke-width="2"/>
<path d="M486.075 2.28662C486.795 2.28662 487.275 2.84953 487.275 3.49285V56.6472C487.275 57.2101 486.795 57.773 486.075 57.773H471.911C471.351 57.773 470.791 57.2101 470.791 56.6472V3.49285C470.791 2.84953 471.351 2.28662 471.911 2.28662H486.075V2.28662Z" fill="url(#paint10_linear_3830_430756)" stroke="#1D1D1B" stroke-width="2"/>
<path d="M535.926 2.28662C536.646 2.28662 537.127 2.84953 537.047 3.41243L535.846 15.6355C535.766 16.2788 535.126 16.7613 534.566 16.7613H522.643V56.6472C522.643 57.2101 522.163 57.773 521.523 57.773H507.36C506.719 57.773 506.159 57.2101 506.159 56.6472V16.7613H492.876C492.316 16.7613 491.756 16.2788 491.756 15.6355V3.49285C491.756 2.84953 492.316 2.28662 492.876 2.28662H535.926V2.28662Z" fill="url(#paint11_linear_3830_430756)" stroke="#1D1D1B" stroke-width="2"/>
<path d="M588.979 2.28662C589.699 2.28662 590.259 2.84953 589.859 3.57326L572.175 35.5785V56.6472C572.175 57.2101 571.615 57.773 570.975 57.773H556.891C556.251 57.773 555.691 57.2101 555.691 56.6472V35.5785L538.007 3.57326C537.607 2.84953 538.167 2.28662 538.887 2.28662H555.531C556.331 2.28662 557.051 2.84953 557.372 3.57326L563.933 18.048L570.495 3.57326C570.815 2.84953 571.535 2.28662 572.335 2.28662H588.979V2.28662Z" fill="url(#paint12_linear_3830_430756)" stroke="#1D1D1B" stroke-width="2"/>
<defs>
<linearGradient id="paint0_linear_3830_430756" x1="29.4067" y1="103.368" x2="29.4067" y2="22.7824" gradientUnits="userSpaceOnUse">
<stop offset="0.08" stop-color="#E94E1B"/>
<stop offset="0.4" stop-color="#F39200"/>
<stop offset="1" stop-color="white"/>
</linearGradient>
<linearGradient id="paint1_linear_3830_430756" x1="86.3803" y1="103.368" x2="86.3803" y2="22.7824" gradientUnits="userSpaceOnUse">
<stop offset="0.08" stop-color="#E94E1B"/>
<stop offset="0.4" stop-color="#F39200"/>
<stop offset="1" stop-color="white"/>
</linearGradient>
<linearGradient id="paint2_linear_3830_430756" x1="132.991" y1="103.368" x2="132.991" y2="22.7826" gradientUnits="userSpaceOnUse">
<stop offset="0.08" stop-color="#E94E1B"/>
<stop offset="0.4" stop-color="#F39200"/>
<stop offset="1" stop-color="white"/>
</linearGradient>
<linearGradient id="paint3_linear_3830_430756" x1="178.562" y1="103.368" x2="178.562" y2="22.7824" gradientUnits="userSpaceOnUse">
<stop offset="0.08" stop-color="#E94E1B"/>
<stop offset="0.4" stop-color="#F39200"/>
<stop offset="1" stop-color="white"/>
</linearGradient>
<linearGradient id="paint4_linear_3830_430756" x1="227.403" y1="103.368" x2="227.403" y2="22.7824" gradientUnits="userSpaceOnUse">
<stop offset="0.08" stop-color="#E94E1B"/>
<stop offset="0.4" stop-color="#F39200"/>
<stop offset="1" stop-color="white"/>
</linearGradient>
<linearGradient id="paint5_linear_3830_430756" x1="278.186" y1="103.368" x2="278.186" y2="22.7824" gradientUnits="userSpaceOnUse">
<stop offset="0.08" stop-color="#E94E1B"/>
<stop offset="0.4" stop-color="#F39200"/>
<stop offset="1" stop-color="white"/>
</linearGradient>
<linearGradient id="paint6_linear_3830_430756" x1="328.117" y1="103.368" x2="328.117" y2="22.7824" gradientUnits="userSpaceOnUse">
<stop offset="0.08" stop-color="#E94E1B"/>
<stop offset="0.4" stop-color="#F39200"/>
<stop offset="1" stop-color="white"/>
</linearGradient>
<linearGradient id="paint7_linear_3830_430756" x1="381.41" y1="103.368" x2="381.41" y2="22.7824" gradientUnits="userSpaceOnUse">
<stop offset="0.08" stop-color="#E94E1B"/>
<stop offset="0.4" stop-color="#F39200"/>
<stop offset="1" stop-color="white"/>
</linearGradient>
<linearGradient id="paint8_linear_3830_430756" x1="417.739" y1="103.368" x2="417.739" y2="22.7824" gradientUnits="userSpaceOnUse">
<stop offset="0.08" stop-color="#E94E1B"/>
<stop offset="0.4" stop-color="#F39200"/>
<stop offset="1" stop-color="white"/>
</linearGradient>
<linearGradient id="paint9_linear_3830_430756" x1="449.586" y1="103.368" x2="449.586" y2="22.7824" gradientUnits="userSpaceOnUse">
<stop offset="0.08" stop-color="#E94E1B"/>
<stop offset="0.4" stop-color="#F39200"/>
<stop offset="1" stop-color="white"/>
</linearGradient>
<linearGradient id="paint10_linear_3830_430756" x1="479.033" y1="103.368" x2="479.033" y2="22.7824" gradientUnits="userSpaceOnUse">
<stop offset="0.08" stop-color="#E94E1B"/>
<stop offset="0.4" stop-color="#F39200"/>
<stop offset="1" stop-color="white"/>
</linearGradient>
<linearGradient id="paint11_linear_3830_430756" x1="514.411" y1="103.368" x2="514.411" y2="22.7824" gradientUnits="userSpaceOnUse">
<stop offset="0.08" stop-color="#E94E1B"/>
<stop offset="0.4" stop-color="#F39200"/>
<stop offset="1" stop-color="white"/>
</linearGradient>
<linearGradient id="paint12_linear_3830_430756" x1="563.933" y1="103.368" x2="563.933" y2="22.7824" gradientUnits="userSpaceOnUse">
<stop offset="0.08" stop-color="#E94E1B"/>
<stop offset="0.4" stop-color="#F39200"/>
<stop offset="1" stop-color="white"/>
</linearGradient>
</defs>
</svg>
